<?xml version="1.0" encoding="UTF-8" standalone="no"?>
<!-- Generator: Adobe Illustrator 16.0.3, SVG Export Plug-In . SVG Version: 6.00 Build 0)  -->

<svg
   xmlns:dc="http://purl.org/dc/elements/1.1/"
   xmlns:cc="http://creativecommons.org/ns#"
   xmlns:rdf="http://www.w3.org/1999/02/22-rdf-syntax-ns#"
   xmlns:svg="http://www.w3.org/2000/svg"
   xmlns="http://www.w3.org/2000/svg"
   xmlns:sodipodi="http://sodipodi.sourceforge.net/DTD/sodipodi-0.dtd"
   xmlns:inkscape="http://www.inkscape.org/namespaces/inkscape"
   version="1.1"
   id="Layer_1"
   x="0px"
   y="0px"
   width="196px"
   height="196px"
   viewBox="0 0 196 196"
   enable-background="new 0 0 196 196"
   xml:space="preserve"
   inkscape:version="0.48.4 r9939"
   sodipodi:docname="erase.svg"
   inkscape:export-filename="Z:\workbench\cecog\resources\icons\erase.png"
   inkscape:export-xdpi="91.801895"
   inkscape:export-ydpi="91.801895"><metadata
   id="metadata13"><rdf:RDF><cc:Work
       rdf:about=""><dc:format>image/svg+xml</dc:format><dc:type
         rdf:resource="http://purl.org/dc/dcmitype/StillImage" /><dc:title></dc:title></cc:Work></rdf:RDF></metadata><defs
   id="defs11" /><sodipodi:namedview
   pagecolor="#ffffff"
   bordercolor="#666666"
   borderopacity="1"
   objecttolerance="10"
   gridtolerance="10"
   guidetolerance="10"
   inkscape:pageopacity="0"
   inkscape:pageshadow="2"
   inkscape:window-width="1078"
   inkscape:window-height="708"
   id="namedview9"
   showgrid="false"
   inkscape:zoom="1.2040816"
   inkscape:cx="91.040549"
   inkscape:cy="76.711343"
   inkscape:window-x="457"
   inkscape:window-y="172"
   inkscape:window-maximized="0"
   inkscape:current-layer="Layer_1" />
<path
   d="M99.033,42.143C88.155,42.509,4.898,91.545,4.898,98.001c0,6.456,83.257,55.489,94.135,55.856  c0.039,0.006,0.094,0,0.127,0h29.873c55.861,0,62.068,0,62.068-37.236v-37.24c0-37.238-6.207-37.238-62.068-37.238H99.16H99.033z"
   id="path3"
   style="fill:#333333;stroke:#d7d7d7;stroke-opacity:1;stroke-width:6.90000000000000040;stroke-miterlimit:4;stroke-dasharray:13.80000000000000100, 13.80000000000000100;stroke-dashoffset:0"
   fill="#818181" />
<polygon
   points="111.188,60.761 135.24,84.812 159.289,60.761 172.479,73.95 148.428,98.001 172.479,122.049   159.289,135.24 135.24,111.189 111.188,135.24 97.998,122.049 122.051,98.001 97.998,73.95 "
   id="polygon5"
   style="fill:#d7d7d7;fill-opacity:1"
   fill="#ED1C24" />
<path
   d="M111,98.001"
   id="path7"
   fill="#FFFFFF" />
</svg>