<?xml version="1.0" encoding="utf-8"?>
<!-- Generator: Adobe Illustrator 16.0.3, SVG Export Plug-In . SVG Version: 6.00 Build 0)  -->
<!DOCTYPE svg PUBLIC "-//W3C//DTD SVG 1.1//EN" "http://www.w3.org/Graphics/SVG/1.1/DTD/svg11.dtd">
<svg version="1.1" id="Layer_1" xmlns="http://www.w3.org/2000/svg" xmlns:xlink="http://www.w3.org/1999/xlink" x="0px" y="0px"
	 width="196px" height="196px" viewBox="0 0 196 196" enable-background="new 0 0 196 196" xml:space="preserve">
<path fill="#818181" d="M99.033,42.143C88.155,42.509,4.898,91.545,4.898,98.001c0,6.456,83.257,55.489,94.135,55.856
	c0.039,0.006,0.094,0,0.127,0h29.873c55.861,0,62.068,0,62.068-37.236v-37.24c0-37.238-6.207-37.238-62.068-37.238H99.16H99.033z"/>
<polygon fill="#ED1C24" points="111.188,60.761 135.24,84.812 159.289,60.761 172.479,73.95 148.428,98.001 172.479,122.049 
	159.289,135.24 135.24,111.189 111.188,135.24 97.998,122.049 122.051,98.001 97.998,73.95 "/>
<path fill="#FFFFFF" d="M111,98.001"/>
</svg>
