<?xml version="1.0" encoding="UTF-8" standalone="no"?>
<svg
   xmlns:dc="http://purl.org/dc/elements/1.1/"
   xmlns:cc="http://creativecommons.org/ns#"
   xmlns:rdf="http://www.w3.org/1999/02/22-rdf-syntax-ns#"
   xmlns:svg="http://www.w3.org/2000/svg"
   xmlns="http://www.w3.org/2000/svg"
   xmlns:sodipodi="http://sodipodi.sourceforge.net/DTD/sodipodi-0.dtd"
   xmlns:inkscape="http://www.inkscape.org/namespaces/inkscape"
   width="48"
   height="48"
   viewBox="0 0 48 48"
   id="svg2"
   version="1.1"
   inkscape:version="0.48.4 r9939"
   sodipodi:docname="event_selection.svg"
   inkscape:export-filename="Z:\workbench\cecog\resources\icons\event-selection.png"
   inkscape:export-xdpi="360"
   inkscape:export-ydpi="360">
  <metadata
     id="metadata10">
    <rdf:RDF>
      <cc:Work
         rdf:about="">
        <dc:format>image/svg+xml</dc:format>
        <dc:type
           rdf:resource="http://purl.org/dc/dcmitype/StillImage" />
        <dc:title></dc:title>
      </cc:Work>
    </rdf:RDF>
  </metadata>
  <defs
     id="defs8" />
  <sodipodi:namedview
     pagecolor="#ffffff"
     bordercolor="#666666"
     borderopacity="1"
     objecttolerance="10"
     gridtolerance="10"
     guidetolerance="10"
     inkscape:pageopacity="0"
     inkscape:pageshadow="2"
     inkscape:window-width="1162"
     inkscape:window-height="868"
     id="namedview6"
     showgrid="false"
     showguides="true"
     inkscape:guide-bbox="true"
     inkscape:zoom="7.7354534"
     inkscape:cx="0.75781919"
     inkscape:cy="12.206621"
     inkscape:window-x="411"
     inkscape:window-y="90"
     inkscape:window-maximized="0"
     inkscape:current-layer="svg2"
     inkscape:snap-smooth-nodes="true">
    <sodipodi:guide
       orientation="1,0"
       position="38.136097,-14.608064"
       id="guide3832" />
  </sodipodi:namedview>
  <path
     d="M 10,6 C 7.79,6 6,7.79 6,10 l 0,28 c 0,2.21 1.79,4 4,4 l 28,0 c 2.21,0 4,-1.79 4,-4 L 42,10 C 42,7.79 40.21,6 38,6 L 10,6 z m 0.25,3.53125 3.34375,0 0,3 -3.34375,0 0,-3 z m 6.34375,0 3,0 0,3 -3,0 0,-3 z m 11.34375,0 3,0 0,3 -3,0 0,-3 z m 8.4375,0.0625 3,0 0,3 -3,0 0,-3 z m -26.125,4.9375 11.15625,0 0,3 -11.15625,0 0,-3 z m 21.59375,0 3,0 0,3 -3,0 0,-3 z m -21.59375,5 4.5625,0 0,3 -4.5625,0 0,-3 z m 7.5625,0 5.6875,0 0,3 -5.6875,0 0,-3 z m 10.90625,0 3,0 0,3 -3,0 0,-3 z m -18.46875,5 6.78125,0 0,3 -4,0 -2.78125,0 0,-3 z m 9.78125,0 4.875,0 0,3 -4.875,0 0,-3 z m 13.625,0 3,0 0,3 -3,0 0,-3 z m -23.40625,5 1.5,0 6.125,0 0,3 -7.625,0 0,-0.625 0,-2.375 z m 10.625,0 7.53125,0 0,3 -7.53125,0 0,-3 z m -10.625,5 3.21875,0 0.25,0 0,3 -3.25,0 -0.21875,0 0,-3 z m 6.46875,0 21.625,0 0,3 -6.75,0 0,-2.96875 -3,0 0,2.96875 -11.875,0 0,-3 z"
     id="path4"
     inkscape:connector-curvature="0" />
</svg>
