<?xml version="1.0" encoding="UTF-8" standalone="no"?>
<svg
   xmlns:dc="http://purl.org/dc/elements/1.1/"
   xmlns:cc="http://creativecommons.org/ns#"
   xmlns:rdf="http://www.w3.org/1999/02/22-rdf-syntax-ns#"
   xmlns:svg="http://www.w3.org/2000/svg"
   xmlns="http://www.w3.org/2000/svg"
   xmlns:sodipodi="http://sodipodi.sourceforge.net/DTD/sodipodi-0.dtd"
   xmlns:inkscape="http://www.inkscape.org/namespaces/inkscape"
   width="48"
   height="48"
   viewBox="0 0 48 48"
   id="svg2"
   version="1.1"
   inkscape:version="0.92.1 r15371"
   sodipodi:docname="hmm.svg"
   inkscape:export-filename="Z:\workbench\cecog\resources\icons\error-correction.png"
   inkscape:export-xdpi="360"
   inkscape:export-ydpi="360">
  <metadata
     id="metadata10">
    <rdf:RDF>
      <cc:Work
         rdf:about="">
        <dc:format>image/svg+xml</dc:format>
        <dc:type
           rdf:resource="http://purl.org/dc/dcmitype/StillImage" />
        <dc:title></dc:title>
      </cc:Work>
    </rdf:RDF>
  </metadata>
  <defs
     id="defs8" />
  <sodipodi:namedview
     pagecolor="#ffffff"
     bordercolor="#666666"
     borderopacity="1"
     objecttolerance="10"
     gridtolerance="10"
     guidetolerance="10"
     inkscape:pageopacity="0"
     inkscape:pageshadow="2"
     inkscape:window-width="1663"
     inkscape:window-height="998"
     id="namedview6"
     showgrid="false"
     showguides="true"
     inkscape:guide-bbox="true"
     inkscape:zoom="13.5625"
     inkscape:cx="8.8714062"
     inkscape:cy="23.410138"
     inkscape:window-x="358"
     inkscape:window-y="150"
     inkscape:window-maximized="0"
     inkscape:current-layer="svg2"
     inkscape:snap-page="false" />
  <path
     d="M 10,6 C 7.79,6 6,7.79 6,10 l 0,28 c 0,2.21 1.79,4 4,4 l 28,0 c 2.21,0 4,-1.79 4,-4 L 42,10 C 42,7.79 40.21,6 38,6 L 10,6 z m 0,2.1875 10.15625,0 0,3 -10.15625,0 0,-3 z m 0,4.90625 12.625,0 0,3 -12.625,0 0,-3 z m 0,5 15.34375,0 0,3 -15.34375,0 0,-3 z m 0,5 21.09375,0 0,3 -21.09375,0 0,-3 z M 10,28 l 27.96875,0 0,3 L 10,31 10,28 z"
     id="path4"
     inkscape:connector-curvature="0" />
  <text
     xml:space="preserve"
     style="font-style:normal;font-variant:normal;font-weight:bold;font-stretch:normal;font-size:11.19346142px;line-height:0%;font-family:sans-serif;-inkscape-font-specification:'Sans Bold';text-align:start;letter-spacing:0px;word-spacing:0px;writing-mode:lr-tb;text-anchor:start;fill:#d4d4d4;fill-opacity:1;stroke:#868686;stroke-width:0.27983657;stroke-linecap:round;stroke-miterlimit:4;stroke-dasharray:1.6790193, 0.55967311;stroke-dashoffset:0;stroke-opacity:1"
     x="9.2102871"
     y="40.495327"
     id="text2987-0"
     transform="scale(1.0137116,0.98647389)"><tspan
       sodipodi:role="line"
       id="tspan2989-6"
       x="9.2102871"
       y="40.495327"
       style="font-style:normal;font-variant:normal;font-weight:bold;font-stretch:normal;font-size:10.60016823px;line-height:125%;font-family:sans-serif;-inkscape-font-specification:'Sans Bold';text-align:start;writing-mode:lr-tb;text-anchor:start;fill:#d4d4d4;fill-opacity:1;stroke:#868686;stroke-width:0.27983657;stroke-linecap:round;stroke-miterlimit:4;stroke-dasharray:1.6790193, 0.55967311;stroke-dashoffset:0;stroke-opacity:1">HMM</tspan></text>
</svg>
