<?xml version="1.0" encoding="utf-8"?>
<!-- Generator: Adobe Illustrator 16.0.3, SVG Export Plug-In . SVG Version: 6.00 Build 0)  -->
<!DOCTYPE svg PUBLIC "-//W3C//DTD SVG 1.1//EN" "http://www.w3.org/Graphics/SVG/1.1/DTD/svg11.dtd">
<svg version="1.1" id="Layer_1" xmlns="http://www.w3.org/2000/svg" xmlns:xlink="http://www.w3.org/1999/xlink" x="0px" y="0px"
	 width="24px" height="24px" viewBox="0 0 24 24" enable-background="new 0 0 24 24" xml:space="preserve">
<path fill="#3D8EC9" d="M10.892,18.65h2.217v-2.217h-2.217V18.65z M12,0.917C5.882,0.917,0.917,5.882,0.917,12
	c0,6.118,4.965,11.084,11.083,11.084c6.118,0,11.084-4.966,11.084-11.084C23.084,5.882,18.118,0.917,12,0.917z M12,20.867
	c-4.888,0-8.866-3.979-8.866-8.867c0-4.888,3.979-8.866,8.866-8.866c4.889,0,8.867,3.979,8.867,8.866
	C20.867,16.889,16.889,20.867,12,20.867z M12,5.351c-2.449,0-4.433,1.984-4.433,4.433h2.217c0-1.219,0.998-2.217,2.216-2.217
	s2.217,0.998,2.217,2.217c0,2.216-3.325,1.94-3.325,5.542h2.217c0-2.493,3.324-2.771,3.324-5.542C16.434,7.334,14.45,5.351,12,5.351
	z"/>
</svg>
